<mxfile host="app.diagrams.net" agent="Mozilla/5.0 (Windows NT 10.0; Win64; x64) AppleWebKit/537.36 (KHTML, like Gecko) Chrome/140.0.0.0 Safari/537.36" version="28.2.5">
  <diagram name="Page-1" id="p0OMV5ZRaiF7G75ynUCO">
    <mxGraphModel dx="976" dy="1497" grid="1" gridSize="10" guides="1" tooltips="1" connect="1" arrows="1" fold="1" page="1" pageScale="1" pageWidth="850" pageHeight="1100" math="0" shadow="0">
      <root>
        <mxCell id="0" />
        <mxCell id="1" parent="0" />
        <mxCell id="CiDz0tIxBXkFjogCp8z9-14" value="Mathematics" style="rounded=1;whiteSpace=wrap;html=1;" vertex="1" parent="1">
          <mxGeometry x="110" y="220" width="120" height="60" as="geometry" />
        </mxCell>
        <mxCell id="CiDz0tIxBXkFjogCp8z9-15" value="Statatistics" style="rounded=1;whiteSpace=wrap;html=1;" vertex="1" parent="1">
          <mxGeometry x="510" y="350" width="120" height="60" as="geometry" />
        </mxCell>
        <mxCell id="CiDz0tIxBXkFjogCp8z9-16" value="Computer Science" style="rounded=1;whiteSpace=wrap;html=1;" vertex="1" parent="1">
          <mxGeometry x="1120" y="160" width="120" height="60" as="geometry" />
        </mxCell>
        <mxCell id="CiDz0tIxBXkFjogCp8z9-17" value="Economics" style="rounded=1;whiteSpace=wrap;html=1;" vertex="1" parent="1">
          <mxGeometry x="390" y="110" width="120" height="60" as="geometry" />
        </mxCell>
        <mxCell id="CiDz0tIxBXkFjogCp8z9-18" value="Accounting" style="rounded=1;whiteSpace=wrap;html=1;" vertex="1" parent="1">
          <mxGeometry x="250" y="360" width="120" height="60" as="geometry" />
        </mxCell>
        <mxCell id="CiDz0tIxBXkFjogCp8z9-20" value="Macroeconomics" style="rounded=1;whiteSpace=wrap;html=1;" vertex="1" parent="1">
          <mxGeometry x="270" y="-20" width="120" height="60" as="geometry" />
        </mxCell>
        <mxCell id="CiDz0tIxBXkFjogCp8z9-21" value="Microeconomics" style="rounded=1;whiteSpace=wrap;html=1;" vertex="1" parent="1">
          <mxGeometry x="520" y="-10" width="120" height="60" as="geometry" />
        </mxCell>
        <mxCell id="CiDz0tIxBXkFjogCp8z9-22" value="Programming" style="rounded=1;whiteSpace=wrap;html=1;" vertex="1" parent="1">
          <mxGeometry x="1060" width="120" height="60" as="geometry" />
        </mxCell>
        <mxCell id="CiDz0tIxBXkFjogCp8z9-23" value="Data Structures &amp;amp; Algorithms" style="rounded=1;whiteSpace=wrap;html=1;" vertex="1" parent="1">
          <mxGeometry x="920" y="80" width="120" height="60" as="geometry" />
        </mxCell>
        <mxCell id="CiDz0tIxBXkFjogCp8z9-24" value="Operating Systems" style="rounded=1;whiteSpace=wrap;html=1;" vertex="1" parent="1">
          <mxGeometry x="910" y="220" width="120" height="60" as="geometry" />
        </mxCell>
        <mxCell id="CiDz0tIxBXkFjogCp8z9-25" value="Database Systems" style="rounded=1;whiteSpace=wrap;html=1;" vertex="1" parent="1">
          <mxGeometry x="1280" y="50" width="120" height="60" as="geometry" />
        </mxCell>
        <mxCell id="CiDz0tIxBXkFjogCp8z9-26" value="AI &amp;amp; Machine Learning" style="rounded=1;whiteSpace=wrap;html=1;" vertex="1" parent="1">
          <mxGeometry x="970" y="330" width="120" height="60" as="geometry" />
        </mxCell>
        <mxCell id="CiDz0tIxBXkFjogCp8z9-27" value="Software Engineering" style="rounded=1;whiteSpace=wrap;html=1;" vertex="1" parent="1">
          <mxGeometry x="1150" y="370" width="130" height="60" as="geometry" />
        </mxCell>
        <mxCell id="CiDz0tIxBXkFjogCp8z9-28" value="Computer Networks" style="rounded=1;whiteSpace=wrap;html=1;" vertex="1" parent="1">
          <mxGeometry x="1310" y="320" width="130" height="60" as="geometry" />
        </mxCell>
        <mxCell id="CiDz0tIxBXkFjogCp8z9-29" value="Data Science" style="rounded=1;whiteSpace=wrap;html=1;" vertex="1" parent="1">
          <mxGeometry x="1390" y="130" width="130" height="60" as="geometry" />
        </mxCell>
        <mxCell id="CiDz0tIxBXkFjogCp8z9-30" value="Data Science" style="rounded=1;whiteSpace=wrap;html=1;" vertex="1" parent="1">
          <mxGeometry x="1420" y="220" width="130" height="60" as="geometry" />
        </mxCell>
      </root>
    </mxGraphModel>
  </diagram>
</mxfile>
